<svg width="445" height="445" viewBox="0 0 445 445" fill="none" xmlns="http://www.w3.org/2000/svg">
<path d="M197.482 1.54757C143.52 7.66322 101.199 28.5748 62.7257 68.2279C35.597 96.1428 18.9251 124.65 8.46822 160.949C2.94382 180.184 0.970822 192.81 0.378922 212.735C-1.39678 272.609 17.0508 325.775 54.7351 369.67C66.9677 383.874 78.2138 394.33 90.1504 402.616C100.41 409.718 104.06 410.803 107.02 407.844C109.683 405.18 108.894 401.925 104.159 396.599C101.692 393.837 99.4235 390.483 99.1276 389.102C98.2397 385.452 100.213 381.901 104.159 380.224C107.217 378.942 108.401 379.041 116.095 380.816C129.216 383.874 141.251 385.65 157.035 386.636C174.693 387.82 180.317 389.595 193.338 397.782C198.567 401.136 208.234 406.463 214.844 409.619C231.91 417.806 236.152 421.752 233.883 427.177C231.91 432.01 227.077 433.588 214.153 433.49C200.342 433.49 180.415 429.939 160.882 424.119C145.789 419.582 143.125 419.779 143.125 425.204C143.125 428.656 145.986 430.728 154.865 434.18C178.541 443.058 236.547 448.088 251.936 442.466C257.461 440.493 259.039 438.323 259.927 431.912C260.815 425.599 263.084 423.133 271.568 419.187C286.365 412.381 301.163 404.391 309.548 398.769C314.283 395.612 321.781 390.878 326.121 388.214C335.197 382.789 339.044 379.435 341.017 375.687C343.089 371.643 342.694 368.486 339.044 360.793C337.17 356.847 333.915 347.871 331.942 340.867C329.969 333.765 327.206 324.099 325.825 319.364C322.471 308.02 322.964 306.245 335.394 284.643C340.721 275.371 349.205 259.786 354.138 249.922C365.187 227.925 365.68 227.432 383.338 223.486C389.849 222.007 397.741 220.626 400.799 220.33C406.225 219.837 406.62 219.935 409.776 223.092C413.624 226.939 415.498 232.561 417.866 246.667C421.022 266.493 419.345 279.119 410.96 298.65C397.938 328.932 382.056 349.35 367.357 354.677C356.407 358.721 352.263 360.99 350.29 364.245C347.627 368.585 347.824 370.558 351.277 378.153C353.941 383.775 354.138 384.861 353.053 387.129C350.882 392.061 326.319 407.844 308.857 415.636C302.051 418.595 299.486 421.357 300.374 424.612C301.656 429.939 307.674 428.656 326.121 418.891C354.138 404.095 381.168 381.408 400.799 356.156C430.296 318.18 446.376 267.085 444.698 217.075C444.403 208.099 443.613 199.122 443.021 197.15C441.64 192.415 436.609 188.173 433.255 188.765C431.775 189.061 429.408 188.371 427.139 186.891C422.995 184.327 421.91 181.663 420.825 170.714C419.543 157.792 419.937 154.439 423.489 146.844C425.659 142.01 426.744 138.361 426.646 135.5C426.547 129.68 419.641 115.969 409.184 100.286C373.67 47.7109 321.978 13.7789 260.519 2.53397C247.694 0.166619 213.956 -0.326578 197.482 1.54757ZM163.25 30.2517C165.322 32.3231 165.322 32.4217 161.474 38.5374C159.6 41.4966 155.457 48.2041 152.399 53.3333C144.507 66.2551 137.206 73.1598 123.889 80.3605C117.871 83.6156 104.849 91.7041 94.8856 98.4115C84.8233 105.218 75.5502 111.235 74.1691 112.024C69.4339 114.391 64.0082 114.687 60.3581 112.813C53.4526 109.163 53.7486 106.204 62.1338 95.0578C77.6219 74.5408 96.5627 58.068 119.943 44.653C143.915 31.0408 159.008 25.9115 163.25 30.2517ZM267.227 31.238C279.361 33.9013 292.58 42.483 309.055 58.1666C319.808 68.4251 323.655 74.0476 323.655 79.5714C323.655 84.8979 309.943 110.741 302.938 118.731C300.67 121.296 296.428 124.748 293.567 126.524C285.083 131.554 285.477 137.67 294.455 141.912C304.517 146.646 313.889 158.68 331.547 189.357C343.484 210.17 345.358 216.976 341.807 227.629C339.538 234.435 322.57 269.058 316.552 279.02C310.337 289.279 305.306 294.31 299.19 296.381C292.482 298.65 274.231 300.031 247.694 300.228L224.512 300.425L218.297 297.565C210.799 294.112 206.557 289.575 198.172 275.864C189.886 262.35 179.034 246.272 176.765 244.299C175.68 243.313 173.707 242.721 172.03 242.918C169.662 243.214 169.268 243.707 168.972 246.864C168.577 251.599 170.057 254.952 180.119 271.721C188.998 286.714 195.114 299.044 197.876 307.626C200.145 314.531 199.257 318.082 190.28 336.922C181.303 355.762 175.976 364.146 170.649 367.697C166.801 370.262 165.716 370.459 157.528 370.361C141.152 370.065 114.418 365.33 104.948 360.891C98.6343 358.031 86.6977 345.898 79.8908 335.442C72.0975 323.704 62.2325 306.344 59.5689 299.932C54.8337 288.49 57.2013 275.469 68.4474 249.724C75.2543 234.435 78.5097 230.49 85.7112 228.813C87.9801 228.32 100.903 229.207 123.297 231.476C142.04 233.35 158.811 234.731 160.488 234.435C165.42 233.449 170.353 227.333 174.2 217.469C177.653 208.789 193.24 178.704 202.414 163.218C207.051 155.327 214.351 147.731 218.79 145.956C223.821 144.082 241.874 141.024 251.147 140.531C263.183 139.939 264.86 139.544 266.833 137.571C269.003 135.5 268.806 129.976 266.537 127.905C264.07 125.636 251.345 124.354 230.135 124.354C216.422 124.354 212.476 124.058 209.912 122.775C205.768 120.605 171.339 86.5748 167.689 81.051C162.855 73.5544 163.842 69.8061 174.299 55.2075C186.334 38.5374 192.352 33.5068 202.907 31.534C217.902 28.6734 255.192 28.4761 267.227 31.238ZM335.592 46.1326C342.497 49.7823 357.887 61.619 365.384 68.9183C372.092 75.6258 373.572 78.9796 370.81 81.7415C367.357 85.1939 356.012 80.2619 342.793 69.7075C334.605 63.0986 322.668 50.1768 322.668 47.9081C322.668 47.119 323.655 45.6394 324.839 44.4558C327.305 42.1871 328.686 42.3843 335.592 46.1326ZM351.277 89.1394C356.012 90.9149 371.895 101.667 381.365 109.656C389.652 116.66 395.374 122.874 397.938 127.905C401.884 135.599 405.732 151.48 408.099 169.728C410.763 191.133 409.579 197.741 402.476 201.49C397.248 204.153 370.02 209.578 365.68 208.789C360.155 207.704 355.815 202.476 345.358 183.932C340.228 174.857 332.731 162.724 328.883 157.003C317.933 141.024 316.454 137.867 316.947 131.357C317.243 126.721 318.624 123.565 325.233 111.531C334.013 95.551 340.425 87.8571 345.062 87.8571C346.542 87.9558 349.403 88.5476 351.277 89.1394ZM53.058 133.823C58.0892 136.98 58.5824 139.15 58.8784 157.201C59.1743 176.238 59.6676 183.241 61.8379 198.827C62.7257 204.745 63.219 211.354 62.923 213.425C62.6271 215.497 58.8784 224.571 54.5378 233.646C50.1972 242.721 45.3633 253.571 43.8836 257.813C39.0497 271.721 35.1037 274.878 28.6915 270.34C22.0819 265.605 18.6292 253.769 17.3467 231.378C15.6697 203.167 21.5887 171.207 32.9334 146.745C39.543 132.639 45.2647 128.99 53.058 133.823ZM38.3592 297.367C40.9241 299.833 44.9687 305.258 47.3363 309.5C57.1027 326.861 66.5731 342.347 72.6894 350.731C83.3436 365.527 85.7112 371.643 81.3706 373.32C78.1151 374.602 62.3311 357.044 49.3093 337.514C42.5025 327.452 30.4672 304.075 29.2834 298.748C28.6915 296.184 30.5658 293.027 32.7361 293.027C33.2294 293.027 35.7943 295 38.3592 297.367Z" fill="#029632"/>
</svg>
