<svg width="1682" height="445" viewBox="0 0 1682 445" fill="none" xmlns="http://www.w3.org/2000/svg">
<path d="M197.482 1.54757C143.52 7.66322 101.199 28.5748 62.7257 68.2279C35.597 96.1428 18.9251 124.65 8.46822 160.949C2.94382 180.184 0.970822 192.81 0.378922 212.735C-1.39678 272.609 17.0508 325.775 54.7351 369.67C66.9677 383.874 78.2138 394.33 90.1504 402.616C100.41 409.718 104.06 410.803 107.02 407.844C109.683 405.18 108.894 401.925 104.159 396.599C101.692 393.837 99.4235 390.483 99.1276 389.102C98.2397 385.452 100.213 381.901 104.159 380.224C107.217 378.942 108.401 379.041 116.095 380.816C129.216 383.874 141.251 385.65 157.035 386.636C174.693 387.82 180.317 389.595 193.338 397.782C198.567 401.136 208.234 406.463 214.844 409.619C231.91 417.806 236.152 421.752 233.883 427.177C231.91 432.01 227.077 433.588 214.153 433.49C200.342 433.49 180.415 429.939 160.882 424.119C145.789 419.582 143.125 419.779 143.125 425.204C143.125 428.656 145.986 430.728 154.865 434.18C178.541 443.058 236.547 448.088 251.936 442.466C257.461 440.493 259.039 438.323 259.927 431.912C260.815 425.599 263.084 423.133 271.568 419.187C286.365 412.381 301.163 404.391 309.548 398.769C314.283 395.612 321.781 390.878 326.121 388.214C335.197 382.789 339.044 379.435 341.017 375.687C343.089 371.643 342.694 368.486 339.044 360.793C337.17 356.847 333.915 347.871 331.942 340.867C329.969 333.765 327.206 324.099 325.825 319.364C322.471 308.02 322.964 306.245 335.394 284.643C340.721 275.371 349.205 259.786 354.138 249.922C365.187 227.925 365.68 227.432 383.338 223.486C389.849 222.007 397.741 220.626 400.799 220.33C406.225 219.837 406.62 219.935 409.776 223.092C413.624 226.939 415.498 232.561 417.866 246.667C421.022 266.493 419.345 279.119 410.96 298.65C397.938 328.932 382.056 349.35 367.357 354.677C356.407 358.721 352.263 360.99 350.29 364.245C347.627 368.585 347.824 370.558 351.277 378.153C353.941 383.775 354.138 384.861 353.053 387.129C350.882 392.061 326.319 407.844 308.857 415.636C302.051 418.595 299.486 421.357 300.374 424.612C301.656 429.939 307.674 428.656 326.121 418.891C354.138 404.095 381.168 381.408 400.799 356.156C430.296 318.18 446.376 267.085 444.698 217.075C444.403 208.099 443.613 199.122 443.021 197.15C441.64 192.415 436.609 188.173 433.255 188.765C431.775 189.061 429.408 188.371 427.139 186.891C422.995 184.327 421.91 181.663 420.825 170.714C419.543 157.792 419.937 154.439 423.489 146.844C425.659 142.01 426.744 138.361 426.646 135.5C426.547 129.68 419.641 115.969 409.184 100.286C373.67 47.7109 321.978 13.7789 260.519 2.53397C247.694 0.166619 213.956 -0.326578 197.482 1.54757ZM163.25 30.2517C165.322 32.3231 165.322 32.4217 161.474 38.5374C159.6 41.4966 155.457 48.2041 152.399 53.3333C144.507 66.2551 137.206 73.1598 123.889 80.3605C117.871 83.6156 104.849 91.7041 94.8856 98.4115C84.8233 105.218 75.5502 111.235 74.1691 112.024C69.4339 114.391 64.0082 114.687 60.3581 112.813C53.4526 109.163 53.7486 106.204 62.1338 95.0578C77.6219 74.5408 96.5627 58.068 119.943 44.653C143.915 31.0408 159.008 25.9115 163.25 30.2517ZM267.227 31.238C279.361 33.9013 292.58 42.483 309.055 58.1666C319.808 68.4251 323.655 74.0476 323.655 79.5714C323.655 84.8979 309.943 110.741 302.938 118.731C300.67 121.296 296.428 124.748 293.567 126.524C285.083 131.554 285.477 137.67 294.455 141.912C304.517 146.646 313.889 158.68 331.547 189.357C343.484 210.17 345.358 216.976 341.807 227.629C339.538 234.435 322.57 269.058 316.552 279.02C310.337 289.279 305.306 294.31 299.19 296.381C292.482 298.65 274.231 300.031 247.694 300.228L224.512 300.425L218.297 297.565C210.799 294.112 206.557 289.575 198.172 275.864C189.886 262.35 179.034 246.272 176.765 244.299C175.68 243.313 173.707 242.721 172.03 242.918C169.662 243.214 169.268 243.707 168.972 246.864C168.577 251.599 170.057 254.952 180.119 271.721C188.998 286.714 195.114 299.044 197.876 307.626C200.145 314.531 199.257 318.082 190.28 336.922C181.303 355.762 175.976 364.146 170.649 367.697C166.801 370.262 165.716 370.459 157.528 370.361C141.152 370.065 114.418 365.33 104.948 360.891C98.6343 358.031 86.6977 345.898 79.8908 335.442C72.0975 323.704 62.2325 306.344 59.5689 299.932C54.8337 288.49 57.2013 275.469 68.4474 249.724C75.2543 234.435 78.5097 230.49 85.7112 228.813C87.9801 228.32 100.903 229.207 123.297 231.476C142.04 233.35 158.811 234.731 160.488 234.435C165.42 233.449 170.353 227.333 174.2 217.469C177.653 208.789 193.24 178.704 202.414 163.218C207.051 155.327 214.351 147.731 218.79 145.956C223.821 144.082 241.874 141.024 251.147 140.531C263.183 139.939 264.86 139.544 266.833 137.571C269.003 135.5 268.806 129.976 266.537 127.905C264.07 125.636 251.345 124.354 230.135 124.354C216.422 124.354 212.476 124.058 209.912 122.775C205.768 120.605 171.339 86.5748 167.689 81.051C162.855 73.5544 163.842 69.8061 174.299 55.2075C186.334 38.5374 192.352 33.5068 202.907 31.534C217.902 28.6734 255.192 28.4761 267.227 31.238ZM335.592 46.1326C342.497 49.7823 357.887 61.619 365.384 68.9183C372.092 75.6258 373.572 78.9796 370.81 81.7415C367.357 85.1939 356.012 80.2619 342.793 69.7075C334.605 63.0986 322.668 50.1768 322.668 47.9081C322.668 47.119 323.655 45.6394 324.839 44.4558C327.305 42.1871 328.686 42.3843 335.592 46.1326ZM351.277 89.1394C356.012 90.9149 371.895 101.667 381.365 109.656C389.652 116.66 395.374 122.874 397.938 127.905C401.884 135.599 405.732 151.48 408.099 169.728C410.763 191.133 409.579 197.741 402.476 201.49C397.248 204.153 370.02 209.578 365.68 208.789C360.155 207.704 355.815 202.476 345.358 183.932C340.228 174.857 332.731 162.724 328.883 157.003C317.933 141.024 316.454 137.867 316.947 131.357C317.243 126.721 318.624 123.565 325.233 111.531C334.013 95.551 340.425 87.8571 345.062 87.8571C346.542 87.9558 349.403 88.5476 351.277 89.1394ZM53.058 133.823C58.0892 136.98 58.5824 139.15 58.8784 157.201C59.1743 176.238 59.6676 183.241 61.8379 198.827C62.7257 204.745 63.219 211.354 62.923 213.425C62.6271 215.497 58.8784 224.571 54.5378 233.646C50.1972 242.721 45.3633 253.571 43.8836 257.813C39.0497 271.721 35.1037 274.878 28.6915 270.34C22.0819 265.605 18.6292 253.769 17.3467 231.378C15.6697 203.167 21.5887 171.207 32.9334 146.745C39.543 132.639 45.2647 128.99 53.058 133.823ZM38.3592 297.367C40.9241 299.833 44.9687 305.258 47.3363 309.5C57.1027 326.861 66.5731 342.347 72.6894 350.731C83.3436 365.527 85.7112 371.643 81.3706 373.32C78.1151 374.602 62.3311 357.044 49.3093 337.514C42.5025 327.452 30.4672 304.075 29.2834 298.748C28.6915 296.184 30.5658 293.027 32.7361 293.027C33.2294 293.027 35.7943 295 38.3592 297.367Z" fill="#029632"/>
<path d="M979.382 84.9966C972.279 86.6735 971.785 87.2653 971.785 94.2687V100.68H981.157H990.529V172.983V245.187L996.251 248.344C1010.65 256.235 1030.58 259.391 1045.77 256.136C1056.72 253.867 1068.76 247.554 1075.96 240.354C1086.52 229.701 1091.15 216.779 1091.15 197.347C1091.15 172.49 1083.16 156.905 1065.9 147.83C1056.92 143.095 1051.99 141.912 1041.93 142.01C1031.47 142.01 1022.2 144.673 1015.88 149.507C1013.42 151.381 1011.15 152.959 1010.85 152.959C1010.55 152.959 1010.26 139.939 1010.06 124.058C1009.77 90.915 1009.37 89.1395 1001.97 85.7857C997.533 83.8129 986.188 83.4184 979.382 84.9966ZM1050.51 161.442C1057.12 164.697 1064.71 173.18 1067.57 180.381C1069.55 185.313 1069.84 187.779 1069.94 199.813C1069.94 213.228 1069.84 213.82 1066.88 220.034C1059.49 235.52 1044.59 242.721 1025.75 239.959C1021.31 239.269 1015.98 238.282 1014.01 237.789L1010.26 236.704V203.265V169.925L1014.4 166.276C1023.08 158.878 1040.64 156.51 1050.51 161.442Z" fill="#029632"/>
<path d="M1241.2 85.3911C1238.34 86.1803 1235.58 87.1666 1235.08 87.4626C1234.59 87.7585 1234.19 90.8163 1234.19 94.3673V100.68H1243.57H1252.94L1252.74 169.925L1252.44 239.17L1243.37 242.622L1234.19 246.173V250.81V255.544H1263.3H1292.4V250.711V245.976L1283.32 242.524L1274.15 239.071L1273.65 167.656C1273.16 98.7075 1273.06 96.1428 1271.19 92.3945C1267.93 85.983 1264.97 84.4047 1255.11 84.2075C1249.88 84.0102 1244.45 84.5034 1241.2 85.3911Z" fill="#029632"/>
<path d="M1313.8 84.9966C1306.7 86.6734 1306.21 87.2653 1306.21 94.2687V100.68H1315.58H1324.95L1324.76 169.827L1324.46 238.973L1315.38 242.425L1306.21 245.976V250.711V255.544H1335.31H1364.41V250.81V246.173L1354.55 242.425L1344.68 238.677L1344.49 166.473C1344.19 84.8979 1344.58 89.534 1336.49 85.7857C1331.96 83.8129 1320.71 83.4183 1313.8 84.9966Z" fill="#029632"/>
<path d="M482.679 103.344L482.975 107.881L492.84 111.531L502.705 115.18V175.745V236.31L492.84 239.861L482.975 243.51L482.679 249.527L482.383 255.544H513.556H544.73L544.434 249.429L544.138 243.313L534.569 239.861L524.901 236.408V209.973V183.537L550.747 183.735L576.594 184.031L578.764 191.429L580.836 198.827L585.373 199.122L590.01 199.418V177.126V154.833L585.373 155.129L580.836 155.425L578.665 161.837L576.495 168.248L550.747 168.544L524.901 168.741V141.616V114.49H557.357H589.714L593.463 124.354L597.211 134.218H602.44H607.767V116.463V98.7075H545.026H482.383L482.679 103.344Z" fill="#029632"/>
<path d="M900.461 137.966L889.906 148.52V155.228V161.837H895.825H901.744V191.133C901.744 228.813 903.125 235.52 912.201 245.68C924.729 259.49 952.549 261.66 966.754 249.922L969.221 247.949L967.445 243.116C966.458 240.452 965.373 237.986 964.979 237.592C964.683 237.197 961.92 237.592 958.961 238.381C952.549 240.058 942.19 240.156 936.765 238.677C931.24 237.099 926.012 231.476 923.94 224.966C922.46 220.527 922.066 214.51 921.77 190.639L921.277 161.837H940.119H958.961V152.959V144.082H940.217H921.474V135.697V127.313H916.245H911.116L900.461 137.966Z" fill="#029632"/>
<path d="M1516.04 137.966L1505.48 148.52V155.228V161.837H1511.4H1517.32V192.218C1517.32 225.262 1517.81 229.602 1522.94 239.071C1526.49 245.483 1533.89 251.993 1540.8 254.656C1545.44 256.531 1548.39 256.925 1557.77 256.925C1568.62 257.024 1569.41 256.925 1575.52 253.867C1584.01 249.626 1584.99 248.146 1582.33 242.031C1581.25 239.466 1580.26 237.296 1580.16 237.197C1580.06 237 1577.5 237.592 1574.54 238.381C1571.58 239.17 1565.86 239.762 1561.71 239.762C1549.58 239.663 1542.57 235.224 1539.32 225.459C1538.04 221.514 1537.64 214.905 1537.25 191.133L1536.85 161.837H1555.69H1574.54V152.959V144.082H1555.79H1537.05V135.697V127.313H1531.82H1526.69L1516.04 137.966Z" fill="#029632"/>
<path d="M670.41 142.207C647.03 144.476 627.99 161.245 622.466 184.524C620.789 191.527 620.789 208.197 622.466 215.102C627.004 233.646 639.73 247.949 657.388 254.361C663.701 256.728 665.872 257.024 677.808 257.024C689.252 256.925 692.014 256.629 697.538 254.656C715.394 248.344 728.81 233.35 733.151 215.102C734.729 208.099 734.729 191.527 733.151 184.524C726.443 156.214 701.188 139.15 670.41 142.207ZM692.803 162.133C713.816 172.391 720.721 206.718 705.924 226.939C699.018 236.31 690.929 240.156 677.808 240.156C664.688 240.156 656.599 236.31 649.595 226.84C644.169 219.344 642.097 212.34 642.097 200.799C642.097 185.017 646.832 173.871 657.289 165.486C666.266 158.286 681.952 156.806 692.803 162.133Z" fill="#029632"/>
<path d="M805.56 142.207C782.18 144.476 763.141 161.245 757.616 184.524C755.939 191.527 755.939 208.197 757.616 215.102C762.154 233.646 774.88 247.949 792.538 254.361C798.852 256.728 801.022 257.024 812.959 257.024C824.402 256.925 827.164 256.629 832.689 254.656C850.545 248.344 863.961 233.35 868.302 215.102C869.88 208.099 869.88 191.527 868.302 184.524C861.593 156.214 836.339 139.15 805.56 142.207ZM827.954 162.133C848.966 172.391 855.872 206.718 841.074 226.939C834.169 236.31 826.079 240.156 812.959 240.156C799.838 240.156 791.749 236.31 784.745 226.84C779.319 219.344 777.248 212.34 777.248 200.799C777.248 185.017 781.983 173.871 792.44 165.486C801.417 158.286 817.102 156.806 827.954 162.133Z" fill="#029632"/>
<path d="M1152.12 142.207C1138.8 143.588 1118.77 149.211 1118.77 151.677C1118.77 152.466 1121.24 160.949 1122.23 163.514C1122.52 164.5 1123.61 164.401 1126.86 163.218C1133.18 161.048 1148.66 158.878 1158.83 158.878C1170.76 158.878 1176.39 161.442 1180.53 169.037C1182.9 173.378 1183.39 175.548 1183.69 183.044L1184.08 192.02L1163.17 194.19C1132.19 197.446 1120.85 202.082 1114.93 213.622C1112.66 217.864 1112.36 219.738 1112.36 228.024C1112.36 236.803 1112.56 237.789 1115.32 242.228C1122.03 253.078 1131.5 257.024 1150.34 257.024C1161.69 257.024 1163.17 256.827 1168.3 254.361C1171.45 252.881 1176.19 249.626 1178.95 247.061C1183.19 243.116 1183.88 242.721 1184.38 244.299C1185.66 248.541 1188.52 253.078 1190.99 254.952C1195.03 257.813 1208.84 258.306 1216.93 255.84L1222.85 253.966L1223.15 247.357L1223.44 240.748H1214.07H1204.8L1204.4 204.449C1204.01 170.221 1203.91 167.952 1201.94 163.02C1197.5 152.071 1190.39 146.153 1178.56 143.687C1169.28 141.813 1161.39 141.32 1152.12 142.207ZM1183.88 218.554V230.884L1179.25 233.942C1165.24 242.721 1143.24 242.918 1135.54 234.139C1132.59 230.786 1132.39 230.194 1132.78 224.769C1133.28 218.061 1136.24 214.116 1142.94 211.65C1146.49 210.269 1172.24 206.619 1180.73 206.323L1183.88 206.224V218.554Z" fill="#029632"/>
<path d="M1420.15 142.207C1408.02 143.292 1387.1 149.211 1387.1 151.48C1387.1 151.874 1387.89 155.031 1388.78 158.483C1390.16 163.415 1390.85 164.697 1392.03 164.204C1402.49 160.061 1428.83 157.497 1437.41 159.864C1446.69 162.429 1452.21 171.898 1452.21 185.51V192.02L1434.75 193.796C1399.63 197.248 1389.17 201.391 1382.76 214.313C1379.21 221.415 1379.11 232.956 1382.56 240.255C1388.19 252.388 1402 258.306 1422.02 257.32C1433.07 256.728 1439.29 254.163 1446.98 247.258L1452.11 242.622L1453.3 246.667C1454.78 251.599 1459.81 256.235 1464.54 257.122C1469.97 258.109 1482.79 257.024 1487.03 255.248L1490.68 253.67V247.258V240.847L1481.61 240.551L1472.43 240.255L1471.94 202.772C1471.45 167.262 1471.35 165.092 1469.38 160.752C1468.19 158.286 1465.82 154.735 1464.15 152.663C1456.85 144.476 1439.98 140.432 1420.15 142.207ZM1452.21 218.554V230.884L1448.46 233.35C1435.34 242.031 1412.36 243.017 1404.56 235.224C1396.77 227.531 1400.81 214.905 1412.16 211.156C1415.51 210.071 1442.05 206.619 1449.05 206.323L1452.21 206.224V218.554Z" fill="#029632"/>
<path d="M1635.21 142.207C1613.01 144.378 1599.89 157.497 1601.37 176.139C1601.67 179.395 1602.65 183.636 1603.54 185.412C1607.98 193.895 1620.9 202.279 1638.96 208.197C1654.64 213.327 1662.34 219.935 1662.34 228.122C1662.34 240.551 1640.93 244.793 1621.79 236.112C1616.27 233.745 1616.17 233.548 1613.5 226.347L1610.84 219.048H1604.53H1598.21V230.786V242.524L1601.47 245.286C1606.2 249.33 1617.45 254.163 1626.03 255.939C1650.79 261.068 1672.4 253.966 1679.2 238.48C1682.36 231.378 1682.46 219.344 1679.4 213.524C1674.86 204.942 1666.28 199.32 1647.34 192.514C1632.54 187.286 1630.67 186.299 1625.93 182.452C1618.34 176.238 1616.76 169.531 1621.89 164.796C1625.93 161.048 1632.64 159.371 1643.59 159.371C1651.19 159.371 1653.85 159.765 1657.6 161.541C1662.04 163.514 1662.43 164.007 1663.91 169.629L1665.59 175.646H1672.4H1679.11V162.922V150.197L1674.17 148.126C1668.16 145.561 1654.74 142.405 1647.54 141.912C1644.58 141.714 1639.05 141.912 1635.21 142.207Z" fill="#029632"/>
</svg>
